# xmcd
#
# Track frame offsets:
#	182
#	18785
#	42870
#	66630
#	82170
#	101705
#	135282
#	154415
#	178065
#
# Disc length: 2640 seconds
#
# Revision: 1
# Processed by: cddbd v1.5.2PL0 Copyright (c) Steve Scherf et al.
# Submitted via: EasyCDDAExtractor 16.0.6.1
#
DISCID=770a4e09
DTITLE=Fred McDowell - Jazz and Blues Collection -Fred McDowell - Cd 54
DYEAR=1971
DGENRE=Blues
TTITLE0=Shake ´em On Down
TTITLE1=I´m Crazy About You Baby
TTITLE2=John Henry
TTITLE3=You Got To Move
TTITLE4=Someday
TTITLE5=Mercy
TTITLE6=The Lovin´ Blues
TTITLE7=White Lightnin´
TTITLE8=Baby, Please Don´t Go
EXTD=
EXTT0=
EXTT1=
EXTT2=
EXTT3=
EXTT4=
EXTT5=
EXTT6=
EXTT7=
EXTT8=
PLAYORDER=
